<?xml version="1.0" encoding="utf-8"?>
<svg version="1.1" width="16" height="15" fill="#949aa2" id="Layer_1" xmlns="http://www.w3.org/2000/svg" xmlns:xlink="http://www.w3.org/1999/xlink" x="0px" y="0px"
	 viewBox="0 0 16 15" style="enable-background:new 0 0 16 15;" xml:space="preserve">

<path class="st0" d="M13,3.4L12.5,3c-0.2-0.1-0.4-0.1-0.5,0.1L6.6,9.9c-0.1,0.1-0.3,0.2-0.4,0.1c0,0,0,0,0,0L3.9,7.8
	c-0.1-0.1-0.4-0.1-0.5,0L3,8.3C2.9,8.4,2.9,8.6,3,8.8L6.3,12c0.1,0.1,0.3,0.1,0.5,0c0,0,0,0,0,0l6.3-8C13.1,3.7,13.1,3.5,13,3.4
	L13,3.4z"/>
</svg>
